# xmcd CD database file
#
# Track frame offsets:
#	150
#	1890
#	33971
#	62238
#	93995
#	135290
#	155805
#	186507
#	211379
#	241370
#
# Disc length: 3564 seconds
#
# Revision: 0
# Processed by: cddbd v1.5.2PL0 Copyright (c) Steve Scherf et al.
# Submitted via: CDex 1.70beta2
#
DISCID=830dea0a
DTITLE=Jaga Jazzist - One-Armed Bandit
DYEAR=2010
DGENRE=Jazz
TTITLE0=The Thing Introduces...
TTITLE1=One-Armed Bandit
TTITLE2=Bananfluer Overalt
TTITLE3=220V/Spektral
TTITLE4=Toccata
TTITLE5=Prognissekongen
TTITLE6=Book Of Glass
TTITLE7=Music! Dance! Drama!
TTITLE8=Touch Of Evil
TTITLE9=Endless Galaxy
EXTD=YEAR: 2010
EXTT0=
EXTT1=
EXTT2=
EXTT3=
EXTT4=
EXTT5=
EXTT6=
EXTT7=
EXTT8=
EXTT9=
PLAYORDER=
